<?xml version="1.0" encoding="UTF-8" standalone="no"?>
<!-- Created with Inkscape (http://www.inkscape.org/) -->

<svg
   version="1.1"
   id="svg9"
   width="480"
   height="512"
   viewBox="0 0 480 512"
   sodipodi:docname="stock-vector-black-silhouette-of-graceful-unicorn-in-jump-vector-flat-icon-isolated-on-white-background-magic-1047127066.svg"
   inkscape:version="1.1 (c68e22c387, 2021-05-23)"
   xmlns:inkscape="http://www.inkscape.org/namespaces/inkscape"
   xmlns:sodipodi="http://sodipodi.sourceforge.net/DTD/sodipodi-0.dtd"
   xmlns="http://www.w3.org/2000/svg"
   xmlns:svg="http://www.w3.org/2000/svg">
  <defs
     id="defs13" />
  <sodipodi:namedview
     id="namedview11"
     pagecolor="#ffffff"
     bordercolor="#666666"
     borderopacity="1.0"
     inkscape:pageshadow="2"
     inkscape:pageopacity="0.0"
     inkscape:pagecheckerboard="0"
     showgrid="false"
     inkscape:zoom="3.0585937"
     inkscape:cx="228.86335"
     inkscape:cy="279.7037"
     inkscape:window-width="1920"
     inkscape:window-height="1001"
     inkscape:window-x="-9"
     inkscape:window-y="-9"
     inkscape:window-maximized="1"
     inkscape:current-layer="g15" />
  <g
     inkscape:groupmode="layer"
     inkscape:label="Image"
     id="g15">
    <path
       style="fill:#000000;stroke-width:0.32"
       d="m 118.08,320.42813 c 0,-1.17254 0.22919,-2.93654 0.5093,-3.92001 1.69171,-5.93947 3.16426,-9.78605 4.01734,-10.49404 0.45554,-0.37806 2.61036,-1.2255 4.27336,-1.6806 2.35779,-0.64524 3.63494,-1.48773 5.87308,-3.87425 1.29419,-1.38 2.88195,-2.78476 3.52836,-3.12168 0.6464,-0.33693 2.61152,-0.85146 4.36692,-1.1434 3.54987,-0.59037 6.24996,-1.29183 7.61757,-1.97898 0.49827,-0.25034 1.03978,-0.45517 1.20336,-0.45517 0.61215,0 8.69628,-4.15254 8.87738,-4.56 0.0587,-0.132 0.22834,-0.24 0.37706,-0.24 0.24398,0 2.83571,-1.5148 5.05835,-2.95648 0.47186,-0.30606 1.07392,-0.65195 1.33792,-0.76864 0.264,-0.11668 0.696,-0.38761 0.96,-0.60204 0.45161,-0.36682 1.07974,-0.72785 5.44,-3.1267 3.2358,-1.78022 5.92264,-2.03939 7.68,-0.74083 3.85567,2.84907 9.42654,3.16628 13.76,0.7835 2.86968,-1.57792 5.67377,-4.28842 6.86172,-6.63273 1.15437,-2.27805 1.07392,-3.65329 -0.65352,-11.17143 -0.63051,-2.7441 -0.90002,-9.29912 -0.50262,-12.22465 l 0.32602,-2.4 -1.32111,-2.64 c -0.72661,-1.452 -1.43573,-2.64 -1.5758,-2.64 -0.14008,0 -0.25469,-0.14962 -0.25469,-0.33249 0,-0.18287 -0.56355,-0.9017 -1.25233,-1.5974 -2.01871,-2.03898 -3.60707,-2.38257 -5.81263,-1.25738 -1.60951,0.82112 -2.15488,1.28019 -6.56707,5.52796 -3.46453,3.33542 -6.72932,6.12561 -8.43335,7.20738 -0.44804,0.28443 -0.88662,0.59594 -0.97462,0.69224 -0.31302,0.34256 -3.70565,1.99009 -5.28,2.56408 -7.66429,2.7943 -16.34634,1.84638 -26.16437,-2.85669 l -3.12437,-1.49664 4.88437,0.12258 c 4.67346,0.11728 4.96255,0.0876 6.69495,-0.68848 2.39887,-1.0746 2.58209,-1.47113 0.50028,-1.08275 -2.5301,0.47202 -8.99912,0.0724 -11.11086,-0.68637 -5.55066,-1.68575 -8.016,-5.5582 -9.72,-9.03624 -0.2333,-1.1665 -0.22441,-2.86571 0.0119,-2.28 0.0888,0.22 0.3654,0.4 0.61473,0.4 1.62732,0.41867 1.80635,2.04523 2.75618,-1.00888 0.54545,-1.04646 0.6283,-1.6137 0.46455,-3.18042 -0.10962,-1.04875 -0.42775,-2.34858 -0.70697,-2.88852 -0.77774,-1.50399 -0.30656,-1.47461 1.20861,0.0753 1.53741,1.57272 1.87393,2.06385 2.82469,4.12241 1.35446,2.93264 1.76367,3.70392 2.50421,4.72 0.41689,0.572 0.85596,1.04 0.97572,1.04 0.11975,0 0.39998,-0.504 0.62273,-1.12 0.48151,-1.0108 1.38698,-1.7321 2.05957,-2.4 0.81713,-0.21314 1.50632,-0.4702 2.2571,-0.46318 l 0.84567,0.21225 -0.79938,0.95002 c -0.89977,1.06931 -1.06503,2.92386 -0.34513,3.87295 0.58038,0.76514 2.16544,1.18685 3.63068,0.96595 2.96818,-0.44749 8.1617,-4.04371 13.49882,-9.34716 3.21387,-3.19359 7.05624,-7.30885 7.05624,-7.55738 0,-0.40915 2.94861,-3.22548 4.29278,-4.10019 3.00576,-1.95598 4.34586,-2.29135 9.14722,-2.28917 3.65853,0.002 4.59273,0.10769 6.10118,0.69244 2.20449,0.85457 4.82075,2.26761 5.2941,2.85934 0.1954,0.24427 0.44982,0.44413 0.56538,0.44413 0.38831,0 3.1131,3.02477 4.17983,4.64 1.89179,2.86451 2.79712,5.16327 3.82376,9.709 l 0.38597,1.70901 0.9835,-0.90901 c 2.93272,-2.71056 4.09357,-3.44962 7.94628,-5.05904 4.2845,-1.78979 13.86597,-2.26523 19.13144,-0.94931 3.30264,0.82538 5.45198,1.45803 6.55942,1.93077 2.66507,0.76846 4.08086,1.45075 7.71076,3.40801 1.34111,0.69972 2.48638,1.40009 2.54505,1.55639 0.0587,0.1563 0.24449,0.28418 0.41296,0.28418 0.35892,0 2.31126,1.32949 2.46704,1.68 0.0587,0.132 0.24468,0.24 0.41338,0.24 0.16869,0 0.59198,0.26577 0.94063,0.59059 0.61149,0.56969 2.94939,1.80672 4.93932,2.61349 3.93639,1.59594 12.22182,2.49728 17.862,1.94315 4.5674,-0.44873 5.658,-0.63266 5.658,-0.95422 0,-0.36171 -3.27547,-1.31301 -4.52089,-1.31301 -1.52202,0 -4.70935,-0.86564 -5.85261,-1.5895 -0.75338,-0.47702 -3.3478,-4.4905 -2.90276,-4.4905 0.0629,0 1.1188,0.21128 2.34638,0.46951 2.28996,0.48171 4.38689,0.27482 7.72777,-0.76243 0.61484,-0.1909 1.60447,-0.34708 2.19918,-0.34708 0.92487,0 1.02367,-0.0694 0.68293,-0.48 -0.2191,-0.264 -0.6018,-0.48 -0.85044,-0.48 -0.81454,0 -4.35818,-2.47772 -4.1124,-2.8754 0.083,-0.13431 0.8376,-0.1116 1.67688,0.0505 2.60392,0.50282 3.99178,0.11336 5.82432,-1.63444 0.89191,-0.85065 1.62164,-1.65056 1.62164,-1.77758 0,-0.12702 0.432,-0.7764 0.96,-1.44305 0.528,-0.66665 0.96,-1.29938 0.96,-1.40605 0,-0.10667 0.3,-0.49395 0.66667,-0.86062 0.92214,-0.92214 0.6187,-1.0499 -1.02583,-0.4319 -0.77046,0.28952 -1.90484,0.57642 -2.52084,0.63754 -0.616,0.0611 -0.868,0.0353 -0.56,-0.0574 0.308,-0.0927 0.56,-0.30196 0.56,-0.46505 0,-0.1631 0.252,-0.29665 0.56,-0.29679 0.308,-1.4e-4 1.11087,-0.49053 1.78415,-1.08977 1.24884,-1.1115 2.44259,-3.96652 2.4663,-5.89849 0.0181,-1.47272 2.03135,-6.45149 2.60882,-6.45149 0.1434,0 0.26249,-0.18 0.26464,-0.4 0.002,-0.22 0.98512,-1.36801 2.18437,-2.55113 3.1009,-3.0592 2.63422,-3.31762 -1.93615,-1.07212 -0.82933,0.40746 -1.5726,0.67612 -1.6517,0.59702 -0.0791,-0.0791 0.18913,-0.81656 0.59607,-1.6388 0.40693,-0.82223 1.00619,-2.18864 1.33169,-3.03645 0.9979,-2.59922 3.26034,-4.5056 6.35181,-5.35217 0.528,-0.14459 1.47685,-0.45495 2.10856,-0.68968 l 1.14857,-0.4268 -0.64223,-1.43493 c -2.74963,-6.14346 -3.14387,-10.03339 -1.23999,-12.23494 1.20093,-1.38869 2.88606,-0.52604 7.0713,3.61997 1.90487,1.88702 3.71342,3.23374 3.98199,2.96517 0.44201,-0.44201 0.18496,-1.70522 -0.47144,-2.31675 -0.37579,-0.35009 -1.13179,-0.73731 -1.68,-0.86048 -0.59453,-0.13357 -0.80306,-0.28496 -0.51676,-0.37516 0.264,-0.0832 1.17583,-0.49356 2.02629,-0.91198 2.15111,-1.05834 3.10867,-0.99085 4.24229,0.299 1.07609,1.22439 1.60678,2.00843 2.04426,3.02023 0.17123,0.396 0.42519,0.72 0.56437,0.72 0.30105,0 2.32279,-3.02385 2.32279,-3.47412 0,-0.1719 0.108,-0.36055 0.24,-0.41921 0.36433,-0.16193 1.68,-2.11484 1.68,-2.49371 0,-0.18313 0.12653,-0.33296 0.28118,-0.33296 0.15466,0 0.4601,-0.432 0.67882,-0.96 0.21872,-0.528 0.52416,-0.96 0.67882,-0.96 0.15465,0 0.28118,-0.15721 0.28118,-0.34935 0,-0.19215 1.296,-2.29039 2.88,-4.66277 1.584,-2.37239 2.88,-4.36608 2.88,-4.43043 0,-0.0643 0.648,-1.0635 1.44,-2.22033 0.792,-1.15684 1.44,-2.24594 1.44,-2.42023 0,-0.17429 0.1209,-0.31689 0.26864,-0.31689 0.14774,0 0.43728,-0.324 0.64339,-0.72 0.20611,-0.396 0.65971,-1.152 1.00797,-1.68 0.34826,-0.528 0.80186,-1.284 1.00797,-1.68 0.20611,-0.396 0.49565,-0.72 0.64339,-0.72 0.14774,0 0.26864,-0.14844 0.26864,-0.32987 0,-0.75457 3.35466,-5.43013 3.89606,-5.43013 0.57924,0 0.36052,0.71719 -1.51254,4.96 -0.64448,1.45986 -1.7696,4.0819 -2.05971,4.8 -0.40125,0.99319 -1.28301,3.0551 -1.98429,4.64 -0.35043,0.792 -0.78838,1.8 -0.97322,2.24 -0.79382,1.88986 -1.33123,3.09461 -1.73491,3.88937 -0.23725,0.46716 -0.43139,0.99711 -0.43139,1.17768 0,0.28762 -0.3552,1.13445 -2.37114,5.65295 -0.23555,0.528 -0.68489,1.608 -0.99852,2.4 -0.3136,0.792 -0.9242,2.22189 -1.35687,3.17754 -0.75136,1.65955 -0.76073,1.75649 -0.20889,2.16 0.31776,0.23235 0.83507,0.42246 1.14956,0.42246 0.62788,0 4.936,1.98695 5.71194,2.63441 0.83354,0.69553 2.6591,3.50768 3.99392,6.15236 0.704,1.39484 1.86637,3.12044 2.58304,3.83465 1.29094,1.28652 5.4489,3.69858 6.37568,3.69858 0.2647,0 0.48128,0.13256 0.48128,0.29457 0,0.16202 0.432,0.38946 0.96,0.50543 0.528,0.11597 0.96,0.33371 0.96,0.48386 0,0.15016 0.2704,0.35883 0.60086,0.46372 0.99514,0.31584 2.2185,1.54437 2.71204,2.72348 0.41164,0.98349 0.40691,1.25905 -0.0415,2.4 -2.12336,5.403 -5.72668,7.46031 -9.63152,5.49903 -1.66086,-0.83421 -5.5128,-1.66874 -6.30291,-1.36554 -0.28048,0.10763 -1.83005,0.0441 -3.44349,-0.14113 -4.08329,-0.46885 -5.36041,-0.45574 -5.68608,0.0583 -0.42518,0.67118 -0.33923,3.8353 0.14724,5.42124 0.23907,0.77935 0.68684,2.281 0.99507,3.337 0.30822,1.056 0.74019,2.424 0.95993,3.04 1.00064,2.80482 1.20538,3.43597 1.48263,4.57081 0.16269,0.66595 0.42445,1.45795 0.58169,1.76 0.2673,0.51344 0.74525,2.24182 1.78903,6.46919 0.79107,3.20404 1.43699,7.8419 1.43699,10.31814 0,2.87913 -0.89158,6.89557 -2.03683,9.17574 l -0.81677,1.62612 3.74682,-0.01 c 2.06073,-0.006 5.47478,-0.21848 7.58678,-0.47331 5.62678,-0.67891 12.85779,-0.61697 15.75248,0.13493 4.21635,1.09521 4.75277,1.73146 5.66016,6.7136 0.47302,2.59719 0.3048,3.72139 -0.85712,5.72829 -0.37782,0.65256 -0.7656,1.25847 -0.86173,1.34647 -0.0962,0.088 -0.3776,0.55356 -0.62547,1.0346 -0.24787,0.48103 -0.71565,1.159 -1.03949,1.50662 -0.32387,0.34761 -0.58883,0.78204 -0.58883,0.9654 0,0.18335 -0.13226,0.33338 -0.29389,0.33338 -0.16166,0 -0.58713,0.47445 -0.94553,1.05434 -0.3584,0.57988 -0.95485,1.40788 -1.32551,1.84 -0.37062,0.43211 -0.92099,1.07366 -1.22304,1.42566 -3.50461,4.0841 -5.28528,6.07115 -6.91453,7.71586 -1.06563,1.07572 -2.23971,2.29972 -2.60905,2.72 -0.93111,1.05952 -8.89885,8.56305 -10.84845,10.21643 -0.88,0.7463 -1.648,1.48083 -1.70666,1.6323 -0.0587,0.15147 -0.31068,0.27541 -0.56,0.27541 -0.24934,0 -0.45334,0.1664 -0.45334,0.36979 0,1.18787 -2.58134,3.41915 -6.15558,5.32081 -2.461,1.30936 -3.53853,1.52756 -4.11344,0.833 -0.71616,-0.86522 -0.59444,-9.37844 0.16425,-11.48831 l 0.57623,-1.60243 3.08428,-0.59599 c 3.89181,-0.75205 6.81943,-2.09283 7.70762,-3.52993 0.36115,-0.58437 0.65664,-1.27918 0.65664,-1.54404 0,-1.54913 3.12512,-6.0029 4.2121,-6.0029 0.1622,0 0.46883,-0.14467 0.6814,-0.32148 0.21258,-0.17681 1.30807,-0.92312 2.4344,-1.65846 3.58013,-2.33732 7.91895,-7.01415 11.07709,-11.94006 0.67703,-1.056 1.34064,-2.06883 1.47469,-2.25074 0.13405,-0.1819 0.12291,-0.52619 -0.0246,-0.7651 -0.21248,-0.34379 -0.57904,-0.22478 -1.75776,0.57073 -0.8191,0.55281 -1.61578,1.00511 -1.77037,1.00511 -0.15459,0 -0.47139,0.18 -0.70397,0.4 -0.3806,0.36004 -5.21836,2.7871 -7.86284,3.94474 -2.47552,1.08366 -3.20055,1.38722 -4.56,1.90924 -0.792,0.30412 -1.872,0.73382 -2.4,0.95488 -5.0265,2.10454 -14.66004,4.31114 -18.82148,4.31114 -2.2502,0 -5.89686,-0.82395 -6.67786,-1.50883 -14.44319,0.32151 -34.3817,5.08146 -47.88319,2.92813 -6.96074,-1.25481 -11.11228,-2.62616 -17.56723,-5.80288 -2.67838,-1.31812 -4.99509,-2.34705 -5.14826,-2.2865 -0.15317,0.0605 -1.25403,1.23332 -2.44635,2.60618 -1.19232,1.37285 -3.19561,3.37653 -4.45175,4.45262 -1.25613,1.07609 -2.33188,2.07684 -2.39055,2.2239 -0.0588,0.14706 -0.29876,0.26738 -0.53343,0.26738 -0.23467,0 -0.47467,0.11638 -0.53333,0.25863 -0.16601,0.40251 -2.76232,2.09053 -5.17543,3.36486 -7.3662,3.88999 -18.02104,5.77055 -26.61963,4.69833 -1.40339,-0.17499 -3.77561,-0.45478 -5.27161,-0.62175 -2.72361,-0.30397 -5.09774,-0.72141 -10.99094,-1.93252 -1.73301,-0.35615 -4.03701,-0.64503 -5.12,-0.64196 -3.71451,0.0105 -9.85054,1.35645 -14.28906,3.13424 -3.59334,1.43926 -4.5734,1.85112 -6.4,2.68955 -2.71039,1.24409 -6.50784,3.16221 -8.32,4.20249 -0.792,0.45465 -1.872,1.04273 -2.4,1.30686 -0.528,0.26412 -1.536,0.81067 -2.24,1.21455 -0.704,0.40387 -2.144,1.2271 -3.2,1.82939 -1.056,0.60229 -1.992,1.17658 -2.08,1.2762 -0.088,0.0996 -0.736,0.46775 -1.44,0.81807 -0.704,0.35031 -1.352,0.71723 -1.44,0.81536 -0.088,0.0981 -0.82147,0.56038 -1.62993,1.02721 -0.80845,0.46683 -1.88259,1.39591 -2.38698,2.06463 -1.04811,1.38962 -1.30751,1.61751 -3.50309,3.07752 -2.17184,1.44426 -4.17482,2.13834 -6.1707,2.13834 H 118.08 Z"
       id="path24039"
       sodipodi:nodetypes="cssssssssssssssssssscsssssssssscsssccsccssssssccccsssssscssssscsssccssssssssssssssssscssssssssssssscssssssscsssssssssssssssssssssssssssssssscsssssssssssssssscsssssscsssssccssssssssssssssssssssscsssssssscsssssssccssssscssssssssssssssssssssc" />
  </g>
</svg>
